{
    "asset" : {
        "generator" : "Khronos glTF Blender I/O v3.2.43",
        "version" : "2.0"
    },
    "scene" : 0,
    "scenes" : [
        {
            "name" : "Scene",
            "nodes" : [
                0
            ]
        }
    ],
    "nodes" : [
        {
            "mesh" : 0,
            "name" : "Cube.028",
            "translation" : [
                1.999999761581421,
                2.0000009536743164,
                -1.999999761581421
            ]
        }
    ],
    "materials" : [
        {
            "doubleSided" : true,
            "name" : "black",
            "pbrMetallicRoughness" : {
                "baseColorFactor" : [
                    0,
                    0,
                    0,
                    1
                ],
                "metallicFactor" : 0,
                "roughnessFactor" : 0.03614399954676628
            }
        },
        {
            "doubleSided" : true,
            "name" : "White",
            "pbrMetallicRoughness" : {
                "metallicFactor" : 0,
                "roughnessFactor" : 0.09150289744138718
            }
        },
        {
            "doubleSided" : true,
            "name" : "Red",
            "pbrMetallicRoughness" : {
                "baseColorFactor" : [
                    1,
                    0.0654897466301918,
                    0.2873212993144989,
                    1
                ],
                "metallicFactor" : 0,
                "roughnessFactor" : 0.09150326997041702
            }
        },
        {
            "doubleSided" : true,
            "name" : "Green",
            "pbrMetallicRoughness" : {
                "baseColorFactor" : [
                    0.023032870143651962,
                    0.11067257076501846,
                    0.029587991535663605,
                    1
                ],
                "metallicFactor" : 0,
                "roughnessFactor" : 0.09229899942874908
            }
        }
    ],
    "meshes" : [
        {
            "name" : "Cube.029",
            "primitives" : [
                {
                    "attributes" : {
                        "POSITION" : 0,
                        "NORMAL" : 1,
                        "TEXCOORD_0" : 2
                    },
                    "indices" : 3,
                    "material" : 0
                },
                {
                    "attributes" : {
                        "POSITION" : 4,
                        "NORMAL" : 5,
                        "TEXCOORD_0" : 6
                    },
                    "indices" : 7,
                    "material" : 1
                },
                {
                    "attributes" : {
                        "POSITION" : 8,
                        "NORMAL" : 9,
                        "TEXCOORD_0" : 10
                    },
                    "indices" : 11,
                    "material" : 2
                },
                {
                    "attributes" : {
                        "POSITION" : 12,
                        "NORMAL" : 13,
                        "TEXCOORD_0" : 14
                    },
                    "indices" : 15,
                    "material" : 3
                }
            ]
        }
    ],
    "accessors" : [
        {
            "bufferView" : 0,
            "componentType" : 5126,
            "count" : 894,
            "max" : [
                1.000000238418579,
                0.9999990463256836,
                0.9999997615814209
            ],
            "min" : [
                -0.9999997615814209,
                -1.0000009536743164,
                -1.000000238418579
            ],
            "type" : "VEC3"
        },
        {
            "bufferView" : 1,
            "componentType" : 5126,
            "count" : 894,
            "type" : "VEC3"
        },
        {
            "bufferView" : 2,
            "componentType" : 5126,
            "count" : 894,
            "type" : "VEC2"
        },
        {
            "bufferView" : 3,
            "componentType" : 5123,
            "count" : 2664,
            "type" : "SCALAR"
        },
        {
            "bufferView" : 4,
            "componentType" : 5126,
            "count" : 9,
            "max" : [
                0.831078290939331,
                0.9972043037414551,
                0.831078052520752
            ],
            "min" : [
                -0.831078052520752,
                0.9972043037414551,
                -0.831078290939331
            ],
            "type" : "VEC3"
        },
        {
            "bufferView" : 5,
            "componentType" : 5126,
            "count" : 9,
            "type" : "VEC3"
        },
        {
            "bufferView" : 6,
            "componentType" : 5126,
            "count" : 9,
            "type" : "VEC2"
        },
        {
            "bufferView" : 7,
            "componentType" : 5123,
            "count" : 24,
            "type" : "SCALAR"
        },
        {
            "bufferView" : 8,
            "componentType" : 5126,
            "count" : 9,
            "max" : [
                0.831078290939331,
                0.8310770988464355,
                -0.9972054958343506
            ],
            "min" : [
                -0.831078052520752,
                -0.8310792446136475,
                -0.9972054958343506
            ],
            "type" : "VEC3"
        },
        {
            "bufferView" : 9,
            "componentType" : 5126,
            "count" : 9,
            "type" : "VEC3"
        },
        {
            "bufferView" : 10,
            "componentType" : 5126,
            "count" : 9,
            "type" : "VEC2"
        },
        {
            "bufferView" : 11,
            "componentType" : 5123,
            "count" : 24,
            "type" : "SCALAR"
        },
        {
            "bufferView" : 12,
            "componentType" : 5126,
            "count" : 12,
            "max" : [
                0.9972054958343506,
                0.8310770988464355,
                0.831078052520752
            ],
            "min" : [
                0.9972054958343506,
                -0.8310792446136475,
                -0.831078290939331
            ],
            "type" : "VEC3"
        },
        {
            "bufferView" : 13,
            "componentType" : 5126,
            "count" : 12,
            "type" : "VEC3"
        },
        {
            "bufferView" : 14,
            "componentType" : 5126,
            "count" : 12,
            "type" : "VEC2"
        },
        {
            "bufferView" : 15,
            "componentType" : 5123,
            "count" : 24,
            "type" : "SCALAR"
        }
    ],
    "bufferViews" : [
        {
            "buffer" : 0,
            "byteLength" : 10728,
            "byteOffset" : 0
        },
        {
            "buffer" : 0,
            "byteLength" : 10728,
            "byteOffset" : 10728
        },
        {
            "buffer" : 0,
            "byteLength" : 7152,
            "byteOffset" : 21456
        },
        {
            "buffer" : 0,
            "byteLength" : 5328,
            "byteOffset" : 28608
        },
        {
            "buffer" : 0,
            "byteLength" : 108,
            "byteOffset" : 33936
        },
        {
            "buffer" : 0,
            "byteLength" : 108,
            "byteOffset" : 34044
        },
        {
            "buffer" : 0,
            "byteLength" : 72,
            "byteOffset" : 34152
        },
        {
            "buffer" : 0,
            "byteLength" : 48,
            "byteOffset" : 34224
        },
        {
            "buffer" : 0,
            "byteLength" : 108,
            "byteOffset" : 34272
        },
        {
            "buffer" : 0,
            "byteLength" : 108,
            "byteOffset" : 34380
        },
        {
            "buffer" : 0,
            "byteLength" : 72,
            "byteOffset" : 34488
        },
        {
            "buffer" : 0,
            "byteLength" : 48,
            "byteOffset" : 34560
        },
        {
            "buffer" : 0,
            "byteLength" : 144,
            "byteOffset" : 34608
        },
        {
            "buffer" : 0,
            "byteLength" : 144,
            "byteOffset" : 34752
        },
        {
            "buffer" : 0,
            "byteLength" : 96,
            "byteOffset" : 34896
        },
        {
            "buffer" : 0,
            "byteLength" : 48,
            "byteOffset" : 34992
        }
    ],
    "buffers" : [
        {
            "byteLength" : 35040,
            "uri" : "data:application/octet-stream;base64,"
        }
    ]
}
