{
    "asset" : {
        "generator" : "Khronos glTF Blender I/O v3.2.43",
        "version" : "2.0"
    },
    "scene" : 0,
    "scenes" : [
        {
            "name" : "Scene",
            "nodes" : [
                0
            ]
        }
    ],
    "nodes" : [
        {
            "mesh" : 0,
            "name" : "Cube.004",
            "translation" : [
                -2.0000016689300537,
                2.0000009536743164,
                2.000000238418579
            ]
        }
    ],
    "materials" : [
        {
            "doubleSided" : true,
            "name" : "black",
            "pbrMetallicRoughness" : {
                "baseColorFactor" : [
                    0,
                    0,
                    0,
                    1
                ],
                "metallicFactor" : 0,
                "roughnessFactor" : 0.03614399954676628
            }
        },
        {
            "doubleSided" : true,
            "name" : "White",
            "pbrMetallicRoughness" : {
                "metallicFactor" : 0,
                "roughnessFactor" : 0.09150289744138718
            }
        },
        {
            "doubleSided" : true,
            "name" : "Blue",
            "pbrMetallicRoughness" : {
                "baseColorFactor" : [
                    0.031203296035528183,
                    0.11176154762506485,
                    0.4109138548374176,
                    1
                ],
                "metallicFactor" : 0,
                "roughnessFactor" : 0.09150326997041702
            }
        },
        {
            "doubleSided" : true,
            "name" : "Orange",
            "pbrMetallicRoughness" : {
                "baseColorFactor" : [
                    0.38434919714927673,
                    0.07227596640586853,
                    0.003799190279096365,
                    1
                ],
                "metallicFactor" : 0,
                "roughnessFactor" : 0.09222699701786041
            }
        }
    ],
    "meshes" : [
        {
            "name" : "Cube.002",
            "primitives" : [
                {
                    "attributes" : {
                        "POSITION" : 0,
                        "NORMAL" : 1,
                        "TEXCOORD_0" : 2
                    },
                    "indices" : 3,
                    "material" : 0
                },
                {
                    "attributes" : {
                        "POSITION" : 4,
                        "NORMAL" : 5,
                        "TEXCOORD_0" : 6
                    },
                    "indices" : 7,
                    "material" : 1
                },
                {
                    "attributes" : {
                        "POSITION" : 8,
                        "NORMAL" : 9,
                        "TEXCOORD_0" : 10
                    },
                    "indices" : 11,
                    "material" : 2
                },
                {
                    "attributes" : {
                        "POSITION" : 12,
                        "NORMAL" : 13,
                        "TEXCOORD_0" : 14
                    },
                    "indices" : 15,
                    "material" : 3
                }
            ]
        }
    ],
    "accessors" : [
        {
            "bufferView" : 0,
            "componentType" : 5126,
            "count" : 889,
            "max" : [
                1.0000016689300537,
                0.9999990463256836,
                0.9999997615814209
            ],
            "min" : [
                -0.9999983310699463,
                -1.0000009536743164,
                -1.000000238418579
            ],
            "type" : "VEC3"
        },
        {
            "bufferView" : 1,
            "componentType" : 5126,
            "count" : 889,
            "type" : "VEC3"
        },
        {
            "bufferView" : 2,
            "componentType" : 5126,
            "count" : 889,
            "type" : "VEC2"
        },
        {
            "bufferView" : 3,
            "componentType" : 5123,
            "count" : 2664,
            "type" : "SCALAR"
        },
        {
            "bufferView" : 4,
            "componentType" : 5126,
            "count" : 9,
            "max" : [
                0.8310799598693848,
                0.9972043037414551,
                0.831078052520752
            ],
            "min" : [
                -0.8310766220092773,
                0.9972043037414551,
                -0.8310785293579102
            ],
            "type" : "VEC3"
        },
        {
            "bufferView" : 5,
            "componentType" : 5126,
            "count" : 9,
            "type" : "VEC3"
        },
        {
            "bufferView" : 6,
            "componentType" : 5126,
            "count" : 9,
            "type" : "VEC2"
        },
        {
            "bufferView" : 7,
            "componentType" : 5123,
            "count" : 24,
            "type" : "SCALAR"
        },
        {
            "bufferView" : 8,
            "componentType" : 5126,
            "count" : 9,
            "max" : [
                -0.9972038269042969,
                0.8310770988464355,
                0.831078052520752
            ],
            "min" : [
                -0.9972038269042969,
                -0.8310792446136475,
                -0.8310785293579102
            ],
            "type" : "VEC3"
        },
        {
            "bufferView" : 9,
            "componentType" : 5126,
            "count" : 9,
            "type" : "VEC3"
        },
        {
            "bufferView" : 10,
            "componentType" : 5126,
            "count" : 9,
            "type" : "VEC2"
        },
        {
            "bufferView" : 11,
            "componentType" : 5123,
            "count" : 24,
            "type" : "SCALAR"
        },
        {
            "bufferView" : 12,
            "componentType" : 5126,
            "count" : 9,
            "max" : [
                0.8310799598693848,
                0.8310770988464355,
                0.9972052574157715
            ],
            "min" : [
                -0.8310766220092773,
                -0.8310792446136475,
                0.9972052574157715
            ],
            "type" : "VEC3"
        },
        {
            "bufferView" : 13,
            "componentType" : 5126,
            "count" : 9,
            "type" : "VEC3"
        },
        {
            "bufferView" : 14,
            "componentType" : 5126,
            "count" : 9,
            "type" : "VEC2"
        },
        {
            "bufferView" : 15,
            "componentType" : 5123,
            "count" : 24,
            "type" : "SCALAR"
        }
    ],
    "bufferViews" : [
        {
            "buffer" : 0,
            "byteLength" : 10668,
            "byteOffset" : 0
        },
        {
            "buffer" : 0,
            "byteLength" : 10668,
            "byteOffset" : 10668
        },
        {
            "buffer" : 0,
            "byteLength" : 7112,
            "byteOffset" : 21336
        },
        {
            "buffer" : 0,
            "byteLength" : 5328,
            "byteOffset" : 28448
        },
        {
            "buffer" : 0,
            "byteLength" : 108,
            "byteOffset" : 33776
        },
        {
            "buffer" : 0,
            "byteLength" : 108,
            "byteOffset" : 33884
        },
        {
            "buffer" : 0,
            "byteLength" : 72,
            "byteOffset" : 33992
        },
        {
            "buffer" : 0,
            "byteLength" : 48,
            "byteOffset" : 34064
        },
        {
            "buffer" : 0,
            "byteLength" : 108,
            "byteOffset" : 34112
        },
        {
            "buffer" : 0,
            "byteLength" : 108,
            "byteOffset" : 34220
        },
        {
            "buffer" : 0,
            "byteLength" : 72,
            "byteOffset" : 34328
        },
        {
            "buffer" : 0,
            "byteLength" : 48,
            "byteOffset" : 34400
        },
        {
            "buffer" : 0,
            "byteLength" : 108,
            "byteOffset" : 34448
        },
        {
            "buffer" : 0,
            "byteLength" : 108,
            "byteOffset" : 34556
        },
        {
            "buffer" : 0,
            "byteLength" : 72,
            "byteOffset" : 34664
        },
        {
            "buffer" : 0,
            "byteLength" : 48,
            "byteOffset" : 34736
        }
    ],
    "buffers" : [
        {
            "byteLength" : 34784,
            "uri" : "data:application/octet-stream;base64,"
        }
    ]
}
