{
    "asset" : {
        "generator" : "Khronos glTF Blender I/O v3.2.43",
        "version" : "2.0"
    },
    "scene" : 0,
    "scenes" : [
        {
            "name" : "Scene",
            "nodes" : [
                0
            ]
        }
    ],
    "nodes" : [
        {
            "mesh" : 0,
            "name" : "Cube.008",
            "translation" : [
                -2.0000016689300537,
                -1.9999994039535522,
                -1.999999761581421
            ]
        }
    ],
    "materials" : [
        {
            "doubleSided" : true,
            "name" : "black",
            "pbrMetallicRoughness" : {
                "baseColorFactor" : [
                    0,
                    0,
                    0,
                    1
                ],
                "metallicFactor" : 0,
                "roughnessFactor" : 0.03614399954676628
            }
        },
        {
            "doubleSided" : true,
            "name" : "Blue",
            "pbrMetallicRoughness" : {
                "baseColorFactor" : [
                    0.031203296035528183,
                    0.11176154762506485,
                    0.4109138548374176,
                    1
                ],
                "metallicFactor" : 0,
                "roughnessFactor" : 0.09150326997041702
            }
        },
        {
            "doubleSided" : true,
            "name" : "Red",
            "pbrMetallicRoughness" : {
                "baseColorFactor" : [
                    1,
                    0.0654897466301918,
                    0.2873212993144989,
                    1
                ],
                "metallicFactor" : 0,
                "roughnessFactor" : 0.09150326997041702
            }
        },
        {
            "doubleSided" : true,
            "name" : "Yellow",
            "pbrMetallicRoughness" : {
                "baseColorFactor" : [
                    0.4385189414024353,
                    0.3316947817802429,
                    0.012402575463056564,
                    1
                ],
                "metallicFactor" : 0,
                "roughnessFactor" : 0.09227100014686584
            }
        }
    ],
    "meshes" : [
        {
            "name" : "Cube.009",
            "primitives" : [
                {
                    "attributes" : {
                        "POSITION" : 0,
                        "NORMAL" : 1,
                        "TEXCOORD_0" : 2
                    },
                    "indices" : 3,
                    "material" : 0
                },
                {
                    "attributes" : {
                        "POSITION" : 4,
                        "NORMAL" : 5,
                        "TEXCOORD_0" : 6
                    },
                    "indices" : 7,
                    "material" : 1
                },
                {
                    "attributes" : {
                        "POSITION" : 8,
                        "NORMAL" : 9,
                        "TEXCOORD_0" : 10
                    },
                    "indices" : 11,
                    "material" : 2
                },
                {
                    "attributes" : {
                        "POSITION" : 12,
                        "NORMAL" : 13,
                        "TEXCOORD_0" : 14
                    },
                    "indices" : 15,
                    "material" : 3
                }
            ]
        }
    ],
    "accessors" : [
        {
            "bufferView" : 0,
            "componentType" : 5126,
            "count" : 891,
            "max" : [
                1.0000016689300537,
                0.9999994039535522,
                0.9999997615814209
            ],
            "min" : [
                -0.9999983310699463,
                -1.0000005960464478,
                -1.000000238418579
            ],
            "type" : "VEC3"
        },
        {
            "bufferView" : 1,
            "componentType" : 5126,
            "count" : 891,
            "type" : "VEC3"
        },
        {
            "bufferView" : 2,
            "componentType" : 5126,
            "count" : 891,
            "type" : "VEC2"
        },
        {
            "bufferView" : 3,
            "componentType" : 5123,
            "count" : 2664,
            "type" : "SCALAR"
        },
        {
            "bufferView" : 4,
            "componentType" : 5126,
            "count" : 9,
            "max" : [
                -0.9972038269042969,
                0.8310776948928833,
                0.831078052520752
            ],
            "min" : [
                -0.9972038269042969,
                -0.8310788869857788,
                -0.831078290939331
            ],
            "type" : "VEC3"
        },
        {
            "bufferView" : 5,
            "componentType" : 5126,
            "count" : 9,
            "type" : "VEC3"
        },
        {
            "bufferView" : 6,
            "componentType" : 5126,
            "count" : 9,
            "type" : "VEC2"
        },
        {
            "bufferView" : 7,
            "componentType" : 5123,
            "count" : 24,
            "type" : "SCALAR"
        },
        {
            "bufferView" : 8,
            "componentType" : 5126,
            "count" : 9,
            "max" : [
                0.8310799598693848,
                0.8310776948928833,
                -0.9972054958343506
            ],
            "min" : [
                -0.8310766220092773,
                -0.8310788869857788,
                -0.9972054958343506
            ],
            "type" : "VEC3"
        },
        {
            "bufferView" : 9,
            "componentType" : 5126,
            "count" : 9,
            "type" : "VEC3"
        },
        {
            "bufferView" : 10,
            "componentType" : 5126,
            "count" : 9,
            "type" : "VEC2"
        },
        {
            "bufferView" : 11,
            "componentType" : 5123,
            "count" : 24,
            "type" : "SCALAR"
        },
        {
            "bufferView" : 12,
            "componentType" : 5126,
            "count" : 9,
            "max" : [
                0.8310799598693848,
                -0.9972060918807983,
                0.831078052520752
            ],
            "min" : [
                -0.8310766220092773,
                -0.9972060918807983,
                -0.831078290939331
            ],
            "type" : "VEC3"
        },
        {
            "bufferView" : 13,
            "componentType" : 5126,
            "count" : 9,
            "type" : "VEC3"
        },
        {
            "bufferView" : 14,
            "componentType" : 5126,
            "count" : 9,
            "type" : "VEC2"
        },
        {
            "bufferView" : 15,
            "componentType" : 5123,
            "count" : 24,
            "type" : "SCALAR"
        }
    ],
    "bufferViews" : [
        {
            "buffer" : 0,
            "byteLength" : 10692,
            "byteOffset" : 0
        },
        {
            "buffer" : 0,
            "byteLength" : 10692,
            "byteOffset" : 10692
        },
        {
            "buffer" : 0,
            "byteLength" : 7128,
            "byteOffset" : 21384
        },
        {
            "buffer" : 0,
            "byteLength" : 5328,
            "byteOffset" : 28512
        },
        {
            "buffer" : 0,
            "byteLength" : 108,
            "byteOffset" : 33840
        },
        {
            "buffer" : 0,
            "byteLength" : 108,
            "byteOffset" : 33948
        },
        {
            "buffer" : 0,
            "byteLength" : 72,
            "byteOffset" : 34056
        },
        {
            "buffer" : 0,
            "byteLength" : 48,
            "byteOffset" : 34128
        },
        {
            "buffer" : 0,
            "byteLength" : 108,
            "byteOffset" : 34176
        },
        {
            "buffer" : 0,
            "byteLength" : 108,
            "byteOffset" : 34284
        },
        {
            "buffer" : 0,
            "byteLength" : 72,
            "byteOffset" : 34392
        },
        {
            "buffer" : 0,
            "byteLength" : 48,
            "byteOffset" : 34464
        },
        {
            "buffer" : 0,
            "byteLength" : 108,
            "byteOffset" : 34512
        },
        {
            "buffer" : 0,
            "byteLength" : 108,
            "byteOffset" : 34620
        },
        {
            "buffer" : 0,
            "byteLength" : 72,
            "byteOffset" : 34728
        },
        {
            "buffer" : 0,
            "byteLength" : 48,
            "byteOffset" : 34800
        }
    ],
    "buffers" : [
        {
            "byteLength" : 34848,
            "uri" : "data:application/octet-stream;base64,"
        }
    ]
}
