{
    "asset" : {
        "generator" : "Khronos glTF Blender I/O v3.2.43",
        "version" : "2.0"
    },
    "scene" : 0,
    "scenes" : [
        {
            "name" : "Scene",
            "nodes" : [
                0
            ]
        }
    ],
    "nodes" : [
        {
            "mesh" : 0,
            "name" : "Cube.020",
            "translation" : [
                1.999999761581421,
                -1.9999994039535522,
                2.000000238418579
            ]
        }
    ],
    "materials" : [
        {
            "doubleSided" : true,
            "name" : "black",
            "pbrMetallicRoughness" : {
                "baseColorFactor" : [
                    0,
                    0,
                    0,
                    1
                ],
                "metallicFactor" : 0,
                "roughnessFactor" : 0.03614399954676628
            }
        },
        {
            "doubleSided" : true,
            "name" : "Green",
            "pbrMetallicRoughness" : {
                "baseColorFactor" : [
                    0.023032870143651962,
                    0.11067257076501846,
                    0.029587991535663605,
                    1
                ],
                "metallicFactor" : 0,
                "roughnessFactor" : 0.09229899942874908
            }
        },
        {
            "doubleSided" : true,
            "name" : "Orange",
            "pbrMetallicRoughness" : {
                "baseColorFactor" : [
                    0.38434919714927673,
                    0.07227596640586853,
                    0.003799190279096365,
                    1
                ],
                "metallicFactor" : 0,
                "roughnessFactor" : 0.09222699701786041
            }
        },
        {
            "doubleSided" : true,
            "name" : "Yellow",
            "pbrMetallicRoughness" : {
                "baseColorFactor" : [
                    0.4385189414024353,
                    0.3316947817802429,
                    0.012402575463056564,
                    1
                ],
                "metallicFactor" : 0,
                "roughnessFactor" : 0.09227100014686584
            }
        }
    ],
    "meshes" : [
        {
            "name" : "Cube.021",
            "primitives" : [
                {
                    "attributes" : {
                        "POSITION" : 0,
                        "NORMAL" : 1,
                        "TEXCOORD_0" : 2
                    },
                    "indices" : 3,
                    "material" : 0
                },
                {
                    "attributes" : {
                        "POSITION" : 4,
                        "NORMAL" : 5,
                        "TEXCOORD_0" : 6
                    },
                    "indices" : 7,
                    "material" : 1
                },
                {
                    "attributes" : {
                        "POSITION" : 8,
                        "NORMAL" : 9,
                        "TEXCOORD_0" : 10
                    },
                    "indices" : 11,
                    "material" : 2
                },
                {
                    "attributes" : {
                        "POSITION" : 12,
                        "NORMAL" : 13,
                        "TEXCOORD_0" : 14
                    },
                    "indices" : 15,
                    "material" : 3
                }
            ]
        }
    ],
    "accessors" : [
        {
            "bufferView" : 0,
            "componentType" : 5126,
            "count" : 890,
            "max" : [
                1.000000238418579,
                0.9999994039535522,
                0.9999997615814209
            ],
            "min" : [
                -0.9999997615814209,
                -1.0000005960464478,
                -1.000000238418579
            ],
            "type" : "VEC3"
        },
        {
            "bufferView" : 1,
            "componentType" : 5126,
            "count" : 890,
            "type" : "VEC3"
        },
        {
            "bufferView" : 2,
            "componentType" : 5126,
            "count" : 890,
            "type" : "VEC2"
        },
        {
            "bufferView" : 3,
            "componentType" : 5123,
            "count" : 2664,
            "type" : "SCALAR"
        },
        {
            "bufferView" : 4,
            "componentType" : 5126,
            "count" : 9,
            "max" : [
                0.9972054958343506,
                0.8310776948928833,
                0.831078052520752
            ],
            "min" : [
                0.9972054958343506,
                -0.8310788869857788,
                -0.8310785293579102
            ],
            "type" : "VEC3"
        },
        {
            "bufferView" : 5,
            "componentType" : 5126,
            "count" : 9,
            "type" : "VEC3"
        },
        {
            "bufferView" : 6,
            "componentType" : 5126,
            "count" : 9,
            "type" : "VEC2"
        },
        {
            "bufferView" : 7,
            "componentType" : 5123,
            "count" : 24,
            "type" : "SCALAR"
        },
        {
            "bufferView" : 8,
            "componentType" : 5126,
            "count" : 9,
            "max" : [
                0.831078290939331,
                0.8310776948928833,
                0.9972052574157715
            ],
            "min" : [
                -0.831078052520752,
                -0.8310788869857788,
                0.9972052574157715
            ],
            "type" : "VEC3"
        },
        {
            "bufferView" : 9,
            "componentType" : 5126,
            "count" : 9,
            "type" : "VEC3"
        },
        {
            "bufferView" : 10,
            "componentType" : 5126,
            "count" : 9,
            "type" : "VEC2"
        },
        {
            "bufferView" : 11,
            "componentType" : 5123,
            "count" : 24,
            "type" : "SCALAR"
        },
        {
            "bufferView" : 12,
            "componentType" : 5126,
            "count" : 9,
            "max" : [
                0.831078290939331,
                -0.9972060918807983,
                0.831078052520752
            ],
            "min" : [
                -0.831078052520752,
                -0.9972060918807983,
                -0.8310785293579102
            ],
            "type" : "VEC3"
        },
        {
            "bufferView" : 13,
            "componentType" : 5126,
            "count" : 9,
            "type" : "VEC3"
        },
        {
            "bufferView" : 14,
            "componentType" : 5126,
            "count" : 9,
            "type" : "VEC2"
        },
        {
            "bufferView" : 15,
            "componentType" : 5123,
            "count" : 24,
            "type" : "SCALAR"
        }
    ],
    "bufferViews" : [
        {
            "buffer" : 0,
            "byteLength" : 10680,
            "byteOffset" : 0
        },
        {
            "buffer" : 0,
            "byteLength" : 10680,
            "byteOffset" : 10680
        },
        {
            "buffer" : 0,
            "byteLength" : 7120,
            "byteOffset" : 21360
        },
        {
            "buffer" : 0,
            "byteLength" : 5328,
            "byteOffset" : 28480
        },
        {
            "buffer" : 0,
            "byteLength" : 108,
            "byteOffset" : 33808
        },
        {
            "buffer" : 0,
            "byteLength" : 108,
            "byteOffset" : 33916
        },
        {
            "buffer" : 0,
            "byteLength" : 72,
            "byteOffset" : 34024
        },
        {
            "buffer" : 0,
            "byteLength" : 48,
            "byteOffset" : 34096
        },
        {
            "buffer" : 0,
            "byteLength" : 108,
            "byteOffset" : 34144
        },
        {
            "buffer" : 0,
            "byteLength" : 108,
            "byteOffset" : 34252
        },
        {
            "buffer" : 0,
            "byteLength" : 72,
            "byteOffset" : 34360
        },
        {
            "buffer" : 0,
            "byteLength" : 48,
            "byteOffset" : 34432
        },
        {
            "buffer" : 0,
            "byteLength" : 108,
            "byteOffset" : 34480
        },
        {
            "buffer" : 0,
            "byteLength" : 108,
            "byteOffset" : 34588
        },
        {
            "buffer" : 0,
            "byteLength" : 72,
            "byteOffset" : 34696
        },
        {
            "buffer" : 0,
            "byteLength" : 48,
            "byteOffset" : 34768
        }
    ],
    "buffers" : [
        {
            "byteLength" : 34816,
            "uri" : "data:application/octet-stream;base64,"
        }
    ]
}
