{
    "asset" : {
        "generator" : "Khronos glTF Blender I/O v3.2.43",
        "version" : "2.0"
    },
    "scene" : 0,
    "scenes" : [
        {
            "name" : "Scene",
            "nodes" : [
                0
            ]
        }
    ],
    "nodes" : [
        {
            "mesh" : 0,
            "name" : "Cube.006"
        }
    ],
    "materials" : [
        {
            "doubleSided" : true,
            "name" : "black",
            "pbrMetallicRoughness" : {
                "baseColorFactor" : [
                    0,
                    0,
                    0,
                    1
                ],
                "metallicFactor" : 0,
                "roughnessFactor" : 0.03614399954676628
            }
        },
        {
            "doubleSided" : true,
            "name" : "Blue",
            "pbrMetallicRoughness" : {
                "baseColorFactor" : [
                    0.031203296035528183,
                    0.11176154762506485,
                    0.4109138548374176,
                    1
                ],
                "metallicFactor" : 0,
                "roughnessFactor" : 0.09150326997041702
            }
        }
    ],
    "meshes" : [
        {
            "name" : "Cube.007",
            "primitives" : [
                {
                    "attributes" : {
                        "POSITION" : 0,
                        "NORMAL" : 1,
                        "TEXCOORD_0" : 2
                    },
                    "indices" : 3,
                    "material" : 0
                },
                {
                    "attributes" : {
                        "POSITION" : 4,
                        "NORMAL" : 5,
                        "TEXCOORD_0" : 6
                    },
                    "indices" : 7,
                    "material" : 1
                }
            ]
        }
    ],
    "accessors" : [
        {
            "bufferView" : 0,
            "componentType" : 5126,
            "count" : 888,
            "max" : [
                1,
                3,
                -1
            ],
            "min" : [
                -1,
                1,
                -3
            ],
            "type" : "VEC3"
        },
        {
            "bufferView" : 1,
            "componentType" : 5126,
            "count" : 888,
            "type" : "VEC3"
        },
        {
            "bufferView" : 2,
            "componentType" : 5126,
            "count" : 888,
            "type" : "VEC2"
        },
        {
            "bufferView" : 3,
            "componentType" : 5123,
            "count" : 2712,
            "type" : "SCALAR"
        },
        {
            "bufferView" : 4,
            "componentType" : 5126,
            "count" : 9,
            "max" : [
                -0.9972054362297058,
                2.831078290939331,
                -1.168921709060669
            ],
            "min" : [
                -0.9972054362297058,
                1.168921709060669,
                -2.831078290939331
            ],
            "type" : "VEC3"
        },
        {
            "bufferView" : 5,
            "componentType" : 5126,
            "count" : 9,
            "type" : "VEC3"
        },
        {
            "bufferView" : 6,
            "componentType" : 5126,
            "count" : 9,
            "type" : "VEC2"
        },
        {
            "bufferView" : 7,
            "componentType" : 5123,
            "count" : 24,
            "type" : "SCALAR"
        }
    ],
    "bufferViews" : [
        {
            "buffer" : 0,
            "byteLength" : 10656,
            "byteOffset" : 0
        },
        {
            "buffer" : 0,
            "byteLength" : 10656,
            "byteOffset" : 10656
        },
        {
            "buffer" : 0,
            "byteLength" : 7104,
            "byteOffset" : 21312
        },
        {
            "buffer" : 0,
            "byteLength" : 5424,
            "byteOffset" : 28416
        },
        {
            "buffer" : 0,
            "byteLength" : 108,
            "byteOffset" : 33840
        },
        {
            "buffer" : 0,
            "byteLength" : 108,
            "byteOffset" : 33948
        },
        {
            "buffer" : 0,
            "byteLength" : 72,
            "byteOffset" : 34056
        },
        {
            "buffer" : 0,
            "byteLength" : 48,
            "byteOffset" : 34128
        }
    ],
    "buffers" : [
        {
            "byteLength" : 34176,
            "uri" : "data:application/octet-stream;base64,"
        }
    ]
}
