{
    "asset" : {
        "generator" : "Khronos glTF Blender I/O v3.2.43",
        "version" : "2.0"
    },
    "scene" : 0,
    "scenes" : [
        {
            "name" : "Scene",
            "nodes" : [
                0
            ]
        }
    ],
    "nodes" : [
        {
            "mesh" : 0,
            "name" : "Cube.003"
        }
    ],
    "materials" : [
        {
            "doubleSided" : true,
            "name" : "black",
            "pbrMetallicRoughness" : {
                "baseColorFactor" : [
                    0,
                    0,
                    0,
                    1
                ],
                "metallicFactor" : 0,
                "roughnessFactor" : 0.03614399954676628
            }
        },
        {
            "doubleSided" : true,
            "name" : "Blue",
            "pbrMetallicRoughness" : {
                "baseColorFactor" : [
                    0.031203296035528183,
                    0.11176154762506485,
                    0.4109138548374176,
                    1
                ],
                "metallicFactor" : 0,
                "roughnessFactor" : 0.09150326997041702
            }
        },
        {
            "doubleSided" : true,
            "name" : "Orange",
            "pbrMetallicRoughness" : {
                "baseColorFactor" : [
                    0.38434919714927673,
                    0.07227596640586853,
                    0.003799190279096365,
                    1
                ],
                "metallicFactor" : 0,
                "roughnessFactor" : 0.09222699701786041
            }
        }
    ],
    "meshes" : [
        {
            "name" : "Cube.001",
            "primitives" : [
                {
                    "attributes" : {
                        "POSITION" : 0,
                        "NORMAL" : 1,
                        "TEXCOORD_0" : 2
                    },
                    "indices" : 3,
                    "material" : 0
                },
                {
                    "attributes" : {
                        "POSITION" : 4,
                        "NORMAL" : 5,
                        "TEXCOORD_0" : 6
                    },
                    "indices" : 7,
                    "material" : 1
                },
                {
                    "attributes" : {
                        "POSITION" : 8,
                        "NORMAL" : 9,
                        "TEXCOORD_0" : 10
                    },
                    "indices" : 11,
                    "material" : 2
                }
            ]
        }
    ],
    "accessors" : [
        {
            "bufferView" : 0,
            "componentType" : 5126,
            "count" : 896,
            "max" : [
                -1,
                1,
                3
            ],
            "min" : [
                -3,
                -1,
                1
            ],
            "type" : "VEC3"
        },
        {
            "bufferView" : 1,
            "componentType" : 5126,
            "count" : 896,
            "type" : "VEC3"
        },
        {
            "bufferView" : 2,
            "componentType" : 5126,
            "count" : 896,
            "type" : "VEC2"
        },
        {
            "bufferView" : 3,
            "componentType" : 5123,
            "count" : 2688,
            "type" : "SCALAR"
        },
        {
            "bufferView" : 4,
            "componentType" : 5126,
            "count" : 9,
            "max" : [
                -2.9972054958343506,
                0.831078290939331,
                2.831078290939331
            ],
            "min" : [
                -2.9972054958343506,
                -0.831078290939331,
                1.168921709060669
            ],
            "type" : "VEC3"
        },
        {
            "bufferView" : 5,
            "componentType" : 5126,
            "count" : 9,
            "type" : "VEC3"
        },
        {
            "bufferView" : 6,
            "componentType" : 5126,
            "count" : 9,
            "type" : "VEC2"
        },
        {
            "bufferView" : 7,
            "componentType" : 5123,
            "count" : 24,
            "type" : "SCALAR"
        },
        {
            "bufferView" : 8,
            "componentType" : 5126,
            "count" : 9,
            "max" : [
                -1.168921709060669,
                0.831078290939331,
                2.9972054958343506
            ],
            "min" : [
                -2.831078290939331,
                -0.831078290939331,
                2.9972054958343506
            ],
            "type" : "VEC3"
        },
        {
            "bufferView" : 9,
            "componentType" : 5126,
            "count" : 9,
            "type" : "VEC3"
        },
        {
            "bufferView" : 10,
            "componentType" : 5126,
            "count" : 9,
            "type" : "VEC2"
        },
        {
            "bufferView" : 11,
            "componentType" : 5123,
            "count" : 24,
            "type" : "SCALAR"
        }
    ],
    "bufferViews" : [
        {
            "buffer" : 0,
            "byteLength" : 10752,
            "byteOffset" : 0
        },
        {
            "buffer" : 0,
            "byteLength" : 10752,
            "byteOffset" : 10752
        },
        {
            "buffer" : 0,
            "byteLength" : 7168,
            "byteOffset" : 21504
        },
        {
            "buffer" : 0,
            "byteLength" : 5376,
            "byteOffset" : 28672
        },
        {
            "buffer" : 0,
            "byteLength" : 108,
            "byteOffset" : 34048
        },
        {
            "buffer" : 0,
            "byteLength" : 108,
            "byteOffset" : 34156
        },
        {
            "buffer" : 0,
            "byteLength" : 72,
            "byteOffset" : 34264
        },
        {
            "buffer" : 0,
            "byteLength" : 48,
            "byteOffset" : 34336
        },
        {
            "buffer" : 0,
            "byteLength" : 108,
            "byteOffset" : 34384
        },
        {
            "buffer" : 0,
            "byteLength" : 108,
            "byteOffset" : 34492
        },
        {
            "buffer" : 0,
            "byteLength" : 72,
            "byteOffset" : 34600
        },
        {
            "buffer" : 0,
            "byteLength" : 48,
            "byteOffset" : 34672
        }
    ],
    "buffers" : [
        {
            "byteLength" : 34720,
            "uri" : "data:application/octet-stream;base64,"
        }
    ]
}
