{
    "asset" : {
        "generator" : "Khronos glTF Blender I/O v3.2.43",
        "version" : "2.0"
    },
    "scene" : 0,
    "scenes" : [
        {
            "name" : "Scene",
            "nodes" : [
                0
            ]
        }
    ],
    "nodes" : [
        {
            "mesh" : 0,
            "name" : "Cube.019"
        }
    ],
    "materials" : [
        {
            "doubleSided" : true,
            "name" : "black",
            "pbrMetallicRoughness" : {
                "baseColorFactor" : [
                    0,
                    0,
                    0,
                    1
                ],
                "metallicFactor" : 0,
                "roughnessFactor" : 0.03614399954676628
            }
        },
        {
            "doubleSided" : true,
            "name" : "White",
            "pbrMetallicRoughness" : {
                "metallicFactor" : 0,
                "roughnessFactor" : 0.09150289744138718
            }
        },
        {
            "doubleSided" : true,
            "name" : "Red",
            "pbrMetallicRoughness" : {
                "baseColorFactor" : [
                    1,
                    0.0654897466301918,
                    0.2873212993144989,
                    1
                ],
                "metallicFactor" : 0,
                "roughnessFactor" : 0.09150326997041702
            }
        }
    ],
    "meshes" : [
        {
            "name" : "Cube.020",
            "primitives" : [
                {
                    "attributes" : {
                        "POSITION" : 0,
                        "NORMAL" : 1,
                        "TEXCOORD_0" : 2
                    },
                    "indices" : 3,
                    "material" : 0
                },
                {
                    "attributes" : {
                        "POSITION" : 4,
                        "NORMAL" : 5,
                        "TEXCOORD_0" : 6
                    },
                    "indices" : 7,
                    "material" : 1
                },
                {
                    "attributes" : {
                        "POSITION" : 8,
                        "NORMAL" : 9,
                        "TEXCOORD_0" : 10
                    },
                    "indices" : 11,
                    "material" : 2
                }
            ]
        }
    ],
    "accessors" : [
        {
            "bufferView" : 0,
            "componentType" : 5126,
            "count" : 900,
            "max" : [
                1,
                3,
                -1
            ],
            "min" : [
                -1,
                1,
                -3
            ],
            "type" : "VEC3"
        },
        {
            "bufferView" : 1,
            "componentType" : 5126,
            "count" : 900,
            "type" : "VEC3"
        },
        {
            "bufferView" : 2,
            "componentType" : 5126,
            "count" : 900,
            "type" : "VEC2"
        },
        {
            "bufferView" : 3,
            "componentType" : 5123,
            "count" : 2688,
            "type" : "SCALAR"
        },
        {
            "bufferView" : 4,
            "componentType" : 5126,
            "count" : 9,
            "max" : [
                0.831078290939331,
                2.9972052574157715,
                -1.168921709060669
            ],
            "min" : [
                -0.831078290939331,
                2.9972052574157715,
                -2.831078052520752
            ],
            "type" : "VEC3"
        },
        {
            "bufferView" : 5,
            "componentType" : 5126,
            "count" : 9,
            "type" : "VEC3"
        },
        {
            "bufferView" : 6,
            "componentType" : 5126,
            "count" : 9,
            "type" : "VEC2"
        },
        {
            "bufferView" : 7,
            "componentType" : 5123,
            "count" : 24,
            "type" : "SCALAR"
        },
        {
            "bufferView" : 8,
            "componentType" : 5126,
            "count" : 9,
            "max" : [
                0.831078290939331,
                2.831078052520752,
                -2.9972052574157715
            ],
            "min" : [
                -0.831078290939331,
                1.168921709060669,
                -2.9972052574157715
            ],
            "type" : "VEC3"
        },
        {
            "bufferView" : 9,
            "componentType" : 5126,
            "count" : 9,
            "type" : "VEC3"
        },
        {
            "bufferView" : 10,
            "componentType" : 5126,
            "count" : 9,
            "type" : "VEC2"
        },
        {
            "bufferView" : 11,
            "componentType" : 5123,
            "count" : 24,
            "type" : "SCALAR"
        }
    ],
    "bufferViews" : [
        {
            "buffer" : 0,
            "byteLength" : 10800,
            "byteOffset" : 0
        },
        {
            "buffer" : 0,
            "byteLength" : 10800,
            "byteOffset" : 10800
        },
        {
            "buffer" : 0,
            "byteLength" : 7200,
            "byteOffset" : 21600
        },
        {
            "buffer" : 0,
            "byteLength" : 5376,
            "byteOffset" : 28800
        },
        {
            "buffer" : 0,
            "byteLength" : 108,
            "byteOffset" : 34176
        },
        {
            "buffer" : 0,
            "byteLength" : 108,
            "byteOffset" : 34284
        },
        {
            "buffer" : 0,
            "byteLength" : 72,
            "byteOffset" : 34392
        },
        {
            "buffer" : 0,
            "byteLength" : 48,
            "byteOffset" : 34464
        },
        {
            "buffer" : 0,
            "byteLength" : 108,
            "byteOffset" : 34512
        },
        {
            "buffer" : 0,
            "byteLength" : 108,
            "byteOffset" : 34620
        },
        {
            "buffer" : 0,
            "byteLength" : 72,
            "byteOffset" : 34728
        },
        {
            "buffer" : 0,
            "byteLength" : 48,
            "byteOffset" : 34800
        }
    ],
    "buffers" : [
        {
            "byteLength" : 34848,
            "uri" : "data:application/octet-stream;base64,"
        }
    ]
}
