{
    "asset" : {
        "generator" : "Khronos glTF Blender I/O v3.2.43",
        "version" : "2.0"
    },
    "scene" : 0,
    "scenes" : [
        {
            "name" : "Scene",
            "nodes" : [
                0
            ]
        }
    ],
    "nodes" : [
        {
            "mesh" : 0,
            "name" : "Cube.013"
        }
    ],
    "materials" : [
        {
            "doubleSided" : true,
            "name" : "black",
            "pbrMetallicRoughness" : {
                "baseColorFactor" : [
                    0,
                    0,
                    0,
                    1
                ],
                "metallicFactor" : 0,
                "roughnessFactor" : 0.03614399954676628
            }
        },
        {
            "doubleSided" : true,
            "name" : "White",
            "pbrMetallicRoughness" : {
                "metallicFactor" : 0,
                "roughnessFactor" : 0.09150289744138718
            }
        },
        {
            "doubleSided" : true,
            "name" : "Orange",
            "pbrMetallicRoughness" : {
                "baseColorFactor" : [
                    0.38434919714927673,
                    0.07227596640586853,
                    0.003799190279096365,
                    1
                ],
                "metallicFactor" : 0,
                "roughnessFactor" : 0.09222699701786041
            }
        }
    ],
    "meshes" : [
        {
            "name" : "Cube.014",
            "primitives" : [
                {
                    "attributes" : {
                        "POSITION" : 0,
                        "NORMAL" : 1,
                        "TEXCOORD_0" : 2
                    },
                    "indices" : 3,
                    "material" : 0
                },
                {
                    "attributes" : {
                        "POSITION" : 4,
                        "NORMAL" : 5,
                        "TEXCOORD_0" : 6
                    },
                    "indices" : 7,
                    "material" : 1
                },
                {
                    "attributes" : {
                        "POSITION" : 8,
                        "NORMAL" : 9,
                        "TEXCOORD_0" : 10
                    },
                    "indices" : 11,
                    "material" : 2
                }
            ]
        }
    ],
    "accessors" : [
        {
            "bufferView" : 0,
            "componentType" : 5126,
            "count" : 900,
            "max" : [
                3,
                5,
                1
            ],
            "min" : [
                1,
                3,
                -1
            ],
            "type" : "VEC3"
        },
        {
            "bufferView" : 1,
            "componentType" : 5126,
            "count" : 900,
            "type" : "VEC3"
        },
        {
            "bufferView" : 2,
            "componentType" : 5126,
            "count" : 900,
            "type" : "VEC2"
        },
        {
            "bufferView" : 3,
            "componentType" : 5123,
            "count" : 2688,
            "type" : "SCALAR"
        },
        {
            "bufferView" : 4,
            "componentType" : 5126,
            "count" : 9,
            "max" : [
                2.831078290939331,
                4.9972052574157715,
                0.8310782313346863
            ],
            "min" : [
                1.168921709060669,
                4.9972052574157715,
                -0.8310782313346863
            ],
            "type" : "VEC3"
        },
        {
            "bufferView" : 5,
            "componentType" : 5126,
            "count" : 9,
            "type" : "VEC3"
        },
        {
            "bufferView" : 6,
            "componentType" : 5126,
            "count" : 9,
            "type" : "VEC2"
        },
        {
            "bufferView" : 7,
            "componentType" : 5123,
            "count" : 24,
            "type" : "SCALAR"
        },
        {
            "bufferView" : 8,
            "componentType" : 5126,
            "count" : 9,
            "max" : [
                2.831078290939331,
                4.831078052520752,
                0.9972054362297058
            ],
            "min" : [
                1.168921709060669,
                3.168921709060669,
                0.9972054362297058
            ],
            "type" : "VEC3"
        },
        {
            "bufferView" : 9,
            "componentType" : 5126,
            "count" : 9,
            "type" : "VEC3"
        },
        {
            "bufferView" : 10,
            "componentType" : 5126,
            "count" : 9,
            "type" : "VEC2"
        },
        {
            "bufferView" : 11,
            "componentType" : 5123,
            "count" : 24,
            "type" : "SCALAR"
        }
    ],
    "bufferViews" : [
        {
            "buffer" : 0,
            "byteLength" : 10800,
            "byteOffset" : 0
        },
        {
            "buffer" : 0,
            "byteLength" : 10800,
            "byteOffset" : 10800
        },
        {
            "buffer" : 0,
            "byteLength" : 7200,
            "byteOffset" : 21600
        },
        {
            "buffer" : 0,
            "byteLength" : 5376,
            "byteOffset" : 28800
        },
        {
            "buffer" : 0,
            "byteLength" : 108,
            "byteOffset" : 34176
        },
        {
            "buffer" : 0,
            "byteLength" : 108,
            "byteOffset" : 34284
        },
        {
            "buffer" : 0,
            "byteLength" : 72,
            "byteOffset" : 34392
        },
        {
            "buffer" : 0,
            "byteLength" : 48,
            "byteOffset" : 34464
        },
        {
            "buffer" : 0,
            "byteLength" : 108,
            "byteOffset" : 34512
        },
        {
            "buffer" : 0,
            "byteLength" : 108,
            "byteOffset" : 34620
        },
        {
            "buffer" : 0,
            "byteLength" : 72,
            "byteOffset" : 34728
        },
        {
            "buffer" : 0,
            "byteLength" : 48,
            "byteOffset" : 34800
        }
    ],
    "buffers" : [
        {
            "byteLength" : 34848,
            "uri" : "data:application/octet-stream;base64,"
        }
    ]
}
